FacadeStencil[wght].ufo
<glyph name="numbersign" format="2">
  <advance width="750"/>
  <unicode hex="0023"/>
  <outline>
    <contour>
      <point x="172" y="372" type="line"/>
      <point x="268" y="372" type="line"/>
      <point x="356" y="900" type="line"/>
      <point x="260" y="900" type="line"/>
      <point x="221" y="666" type="line"/>
      <point x="103" y="666" type="line"/>
      <point x="89" y="582" type="line"/>
      <point x="207" y="582" type="line"/>
    </contour>
    <contour>
      <point x="363" y="582" type="line"/>
      <point x="699" y="582" type="line"/>
      <point x="713" y="666" type="line"/>
      <point x="599" y="666" type="line"/>
      <point x="638" y="900" type="line"/>
      <point x="542" y="900" type="line"/>
      <point x="503" y="666" type="line"/>
      <point x="377" y="666" type="line"/>
    </contour>
    <contour>
      <point x="110" y="0" type="line"/>
      <point x="206" y="0" type="line"/>
      <point x="245" y="234" type="line"/>
      <point x="371" y="234" type="line"/>
      <point x="385" y="318" type="line"/>
      <point x="49" y="318" type="line"/>
      <point x="35" y="234" type="line"/>
      <point x="149" y="234" type="line"/>
    </contour>
    <contour>
      <point x="392" y="0" type="line"/>
      <point x="488" y="0" type="line"/>
      <point x="527" y="234" type="line"/>
      <point x="645" y="234" type="line"/>
      <point x="659" y="318" type="line"/>
      <point x="541" y="318" type="line"/>
      <point x="576" y="528" type="line"/>
      <point x="480" y="528" type="line"/>
    </contour>
  </outline>
</glyph>
<glyph name="parenleft" format="2">
  <advance width="480"/>
  <unicode hex="0028"/>
  <outline>
    <contour>
      <point x="269" y="-180" type="curve"/>
      <point x="390" y="-180" type="line"/>
      <point x="279" y="-19"/>
      <point x="216" y="176"/>
      <point x="216" y="390" type="curve" smooth="yes"/>
      <point x="216" y="604"/>
      <point x="279" y="799"/>
      <point x="390" y="960" type="curve"/>
      <point x="269" y="960" type="line"/>
      <point x="167" y="793"/>
      <point x="108" y="598"/>
      <point x="108" y="390" type="curve" smooth="yes"/>
      <point x="108" y="182"/>
      <point x="167" y="-13"/>
    </contour>
  </outline>
</glyph>
<glyph name="period" format="2">
  <advance width="270"/>
  <unicode hex="002E"/>
  <outline>
    <contour>
      <point x="135" y="-12" type="curve" smooth="yes"/>
      <point x="180" y="-12"/>
      <point x="213" y="22"/>
      <point x="213" y="66" type="curve" smooth="yes"/>
      <point x="213" y="110"/>
      <point x="180" y="144"/>
      <point x="135" y="144" type="curve" smooth="yes"/>
      <point x="91" y="144"/>
      <point x="57" y="110"/>
      <point x="57" y="66" type="curve" smooth="yes"/>
      <point x="57" y="22"/>
      <point x="91" y="-12"/>
    </contour>
  </outline>
</glyph>
<glyph name="eight" format="2">
  <advance width="750"/>
  <unicode hex="0038"/>
  <outline>
    <contour>
      <point x="343" y="-11" type="curve"/>
      <point x="343" y="92" type="line"/>
      <point x="245" y="107"/>
      <point x="171" y="191"/>
      <point x="171" y="294" type="curve" smooth="yes"/>
      <point x="171" y="398"/>
      <point x="246" y="482"/>
      <point x="345" y="496" type="curve"/>
      <point x="345" y="590" type="line"/>
      <point x="296" y="603"/>
      <point x="260" y="647"/>
      <point x="260" y="701" type="curve" smooth="yes"/>
      <point x="260" y="755"/>
      <point x="296" y="799"/>
      <point x="346" y="812" type="curve"/>
      <point x="346" y="910" type="line"/>
      <point x="243" y="896"/>
      <point x="164" y="812"/>
      <point x="164" y="705" type="curve" smooth="yes"/>
      <point x="164" y="639"/>
      <point x="193" y="588"/>
      <point x="238" y="550" type="curve"/>
      <point x="244" y="568" type="line"/>
      <point x="138" y="521"/>
      <point x="63" y="418"/>
      <point x="63" y="293" type="curve" smooth="yes"/>
      <point x="63" y="131"/>
      <point x="188" y="4"/>
    </contour>
    <contour>
      <point x="407" y="-11" type="line"/>
      <point x="561" y="4"/>
      <point x="687" y="131"/>
      <point x="687" y="293" type="curve" smooth="yes"/>
      <point x="687" y="418"/>
      <point x="612" y="521"/>
      <point x="506" y="568" type="curve"/>
      <point x="512" y="550" type="line"/>
      <point x="557" y="587"/>
      <point x="586" y="639"/>
      <point x="586" y="705" type="curve" smooth="yes"/>
      <point x="586" y="812"/>
      <point x="507" y="896"/>
      <point x="404" y="910" type="curve"/>
      <point x="404" y="812" type="line"/>
      <point x="454" y="799"/>
      <point x="490" y="755"/>
      <point x="490" y="701" type="curve" smooth="yes"/>
      <point x="490" y="647"/>
      <point x="454" y="603"/>
      <point x="405" y="590" type="curve"/>
      <point x="405" y="496" type="line"/>
      <point x="504" y="482"/>
      <point x="579" y="398"/>
      <point x="579" y="294" type="curve" smooth="yes"/>
      <point x="579" y="191"/>
      <point x="504" y="106"/>
      <point x="407" y="92" type="curve"/>
    </contour>
  </outline>
</glyph>
<glyph name="A" format="2">
  <advance width="800"/>
  <unicode hex="0041"/>
  <anchor x="400" y="0" name="bottom"/>
  <anchor x="681" y="0" name="ogonek"/>
  <anchor x="400" y="900" name="top"/>
  <anchor x="120" y="720" name="top-vertical"/>
  <outline>
    <contour>
      <point x="661" y="0" type="line"/>
      <point x="782" y="0" type="line"/>
      <point x="401" y="930" type="line"/>
      <point x="399" y="930" type="line"/>
      <point x="344" y="796" type="line"/>
    </contour>
    <contour>
      <point x="18" y="0" type="line"/>
      <point x="133" y="0" type="line"/>
      <point x="365" y="580" type="line"/>
      <point x="309" y="721" type="line"/>
    </contour>
    <contour>
      <point x="306" y="267" type="line"/>
      <point x="585" y="267" type="line"/>
      <point x="547" y="362" type="line"/>
      <point x="344" y="362" type="line"/>
    </contour>
  </outline>
</glyph>
<glyph name="H" format="2">
  <advance width="800"/>
  <unicode hex="0048"/>
  <anchor x="400" y="0" name="bottom"/>
  <anchor x="400" y="750" name="center"/>
  <anchor x="400" y="900" name="top"/>
  <anchor x="126" y="900" name="topleft"/>
  <outline>
    <contour>
      <point x="560" y="0" type="line"/>
      <point x="674" y="0" type="line"/>
      <point x="674" y="900" type="line"/>
      <point x="560" y="900" type="line"/>
      <point x="560" y="606" type="line"/>
      <point x="300" y="606" type="line"/>
      <point x="300" y="504" type="line"/>
      <point x="560" y="504" type="line"/>
    </contour>
    <contour>
      <point x="126" y="0" type="line"/>
      <point x="240" y="0" type="line"/>
      <point x="240" y="900" type="line"/>
      <point x="126" y="900" type="line"/>
    </contour>
  </outline>
</glyph>
<glyph name="Q" format="2">
  <advance width="1060"/>
  <unicode hex="0051"/>
  <outline>
    <contour>
      <point x="530" y="-18" type="curve" smooth="yes"/>
      <point x="602" y="-18"/>
      <point x="671" y="-2"/>
      <point x="732" y="27" type="curve"/>
      <point x="659" y="114" type="line"/>
      <point x="619" y="99"/>
      <point x="576" y="90"/>
      <point x="530" y="90" type="curve" smooth="yes"/>
      <point x="332" y="90"/>
      <point x="178" y="251"/>
      <point x="178" y="450" type="curve" smooth="yes"/>
      <point x="178" y="639"/>
      <point x="317" y="793"/>
      <point x="496" y="809" type="curve"/>
      <point x="496" y="917" type="line"/>
      <point x="254" y="902"/>
      <point x="60" y="699"/>
      <point x="60" y="450" type="curve" smooth="yes"/>
      <point x="60" y="191"/>
      <point x="270" y="-18"/>
    </contour>
    <contour>
      <point x="859" y="-30" type="line"/>
      <point x="993" y="-30" type="line"/>
      <point x="594" y="450" type="line"/>
      <point x="460" y="450" type="line"/>
    </contour>
    <contour>
      <point x="827" y="87" type="line"/>
      <point x="932" y="172"/>
      <point x="1000" y="303"/>
      <point x="1000" y="450" type="curve" smooth="yes"/>
      <point x="1000" y="699"/>
      <point x="806" y="902"/>
      <point x="564" y="917" type="curve"/>
      <point x="564" y="809" type="line"/>
      <point x="743" y="793"/>
      <point x="882" y="639"/>
      <point x="882" y="450" type="curve" smooth="yes"/>
      <point x="882" y="341"/>
      <point x="836" y="244"/>
      <point x="762" y="178" type="curve"/>
    </contour>
  </outline>
</glyph>
<glyph name="bracketright" format="2">
  <advance width="480"/>
  <unicode hex="005D"/>
  <outline>
    <contour>
      <point x="60" y="-180" type="line"/>
      <point x="360" y="-180" type="line"/>
      <point x="360" y="960" type="line"/>
      <point x="60" y="960" type="line"/>
      <point x="60" y="870" type="line"/>
      <point x="258" y="870" type="line"/>
      <point x="258" y="-90" type="line"/>
      <point x="60" y="-90" type="line"/>
    </contour>
  </outline>
</glyph>
<glyph name="a" format="2">
  <advance width="760"/>
  <unicode hex="0061"/>
  <anchor x="371" y="0" name="bottom"/>
  <anchor x="614" y="0" name="ogonek"/>
  <anchor x="371" y="600" name="top"/>
  <outline>
    <contour>
      <point x="353" y="-8" type="curve" smooth="yes"/>
      <point x="405" y="-8"/>
      <point x="454" y="5"/>
      <point x="496" y="28" type="curve"/>
      <point x="496" y="137" type="line"/>
      <point x="461" y="107"/>
      <point x="417" y="90"/>
      <point x="367" y="90" type="curve" smooth="yes"/>
      <point x="253" y="90"/>
      <point x="162" y="184"/>
      <point x="162" y="300" type="curve" smooth="yes"/>
      <point x="162" y="416"/>
      <point x="253" y="510"/>
      <point x="367" y="510" type="curve" smooth="yes"/>
      <point x="416" y="510"/>
      <point x="461" y="493"/>
      <point x="496" y="463" type="curve"/>
      <point x="496" y="572" type="line"/>
      <point x="453" y="595"/>
      <point x="405" y="608"/>
      <point x="353" y="608" type="curve" smooth="yes"/>
      <point x="188" y="608"/>
      <point x="54" y="470"/>
      <point x="54" y="300" type="curve" smooth="yes"/>
      <point x="54" y="130"/>
      <point x="188" y="-8"/>
    </contour>
    <contour>
      <point x="556" y="0" type="line"/>
      <point x="664" y="0" type="line"/>
      <point x="664" y="600" type="line"/>
      <point x="556" y="600" type="line"/>
    </contour>
  </outline>
</glyph>
<glyph name="h" format="2">
  <advance width="720"/>
  <unicode hex="0068"/>
  <anchor x="360" y="0" name="bottom"/>
  <anchor x="150" y="780" name="center"/>
  <anchor x="150" y="960" name="top"/>
  <outline>
    <contour>
      <point x="528" y="0" type="line"/>
      <point x="636" y="0" type="line"/>
      <point x="636" y="345" type="line" smooth="yes"/>
      <point x="636" y="514"/>
      <point x="522" y="612"/>
      <point x="395" y="612" type="curve" smooth="yes"/>
      <point x="347" y="612"/>
      <point x="302" y="599"/>
      <point x="264" y="573" type="curve"/>
      <point x="264" y="473" type="line"/>
      <point x="292" y="498"/>
      <point x="328" y="510"/>
      <point x="366" y="510" type="curve" smooth="yes"/>
      <point x="469" y="510"/>
      <point x="528" y="425"/>
      <point x="528" y="330" type="curve" smooth="yes"/>
    </contour>
    <contour>
      <point x="96" y="0" type="line"/>
      <point x="204" y="0" type="line"/>
      <point x="204" y="960" type="line"/>
      <point x="96" y="960" type="line"/>
    </contour>
  </outline>
</glyph>
<glyph name="r" format="2">
  <advance width="450"/>
  <unicode hex="0072"/>
  <anchor x="150" y="0" name="bottom"/>
  <anchor x="252" y="600" name="top"/>
  <outline>
    <contour>
      <point x="96" y="0" type="line"/>
      <point x="204" y="0" type="line"/>
      <point x="204" y="600" type="line"/>
      <point x="96" y="600" type="line"/>
    </contour>
    <contour>
      <point x="258" y="453" type="line"/>
      <point x="295" y="488"/>
      <point x="339" y="504"/>
      <point x="390" y="504" type="curve" smooth="yes"/>
      <point x="404" y="504"/>
      <point x="421" y="502"/>
      <point x="434" y="498" type="curve"/>
      <point x="407" y="606" type="line"/>
      <point x="350" y="606"/>
      <point x="302" y="590"/>
      <point x="258" y="557" type="curve"/>
    </contour>
  </outline>
</glyph>
<glyph name="s" format="2">
  <advance width="510"/>
  <unicode hex="0073"/>
  <anchor x="255" y="0" name="bottom"/>
  <anchor x="258" y="600" name="top"/>
  <outline>
    <contour>
      <point x="291" y="-9" type="line"/>
      <point x="385" y="6"/>
      <point x="450" y="74"/>
      <point x="450" y="169" type="curve" smooth="yes"/>
      <point x="450" y="284"/>
      <point x="357" y="322"/>
      <point x="313" y="339" type="curve" smooth="yes"/>
      <point x="232" y="370" type="line" smooth="yes"/>
      <point x="189" y="386"/>
      <point x="168" y="412"/>
      <point x="168" y="444" type="curve" smooth="yes"/>
      <point x="168" y="477"/>
      <point x="191" y="508"/>
      <point x="231" y="517" type="curve"/>
      <point x="231" y="610" type="line"/>
      <point x="133" y="598"/>
      <point x="72" y="525"/>
      <point x="72" y="437" type="curve" smooth="yes"/>
      <point x="72" y="330"/>
      <point x="157" y="291"/>
      <point x="202" y="274" type="curve" smooth="yes"/>
      <point x="283" y="243" type="line" smooth="yes"/>
      <point x="310" y="233"/>
      <point x="354" y="213"/>
      <point x="354" y="161" type="curve" smooth="yes"/>
      <point x="354" y="125"/>
      <point x="333" y="94"/>
      <point x="291" y="84" type="curve"/>
    </contour>
    <contour>
      <point x="231" y="-11" type="curve"/>
      <point x="231" y="82" type="line"/>
      <point x="174" y="91"/>
      <point x="124" y="128"/>
      <point x="92" y="182" type="curve"/>
      <point x="62" y="64" type="line"/>
      <point x="108" y="15"/>
      <point x="173" y="-7"/>
    </contour>
    <contour>
      <point x="406" y="424" type="curve"/>
      <point x="436" y="542" type="line"/>
      <point x="399" y="583"/>
      <point x="343" y="604"/>
      <point x="291" y="610" type="curve"/>
      <point x="291" y="516" type="line"/>
      <point x="337" y="504"/>
      <point x="380" y="471"/>
    </contour>
  </outline>
</glyph>
<glyph name="section" format="2">
  <advance width="750"/>
  <unicode hex="00A7"/>
  <outline>
    <contour>
      <point x="431" y="-185" type="line"/>
      <point x="532" y="-162"/>
      <point x="603" y="-80"/>
      <point x="603" y="28" type="curve" smooth="yes"/>
      <point x="603" y="118"/>
      <point x="557" y="189"/>
      <point x="457" y="233" type="curve" smooth="yes"/>
      <point x="295" y="305" type="line" smooth="yes"/>
      <point x="245" y="327"/>
      <point x="177" y="361"/>
      <point x="177" y="440" type="curve" smooth="yes"/>
      <point x="177" y="484"/>
      <point x="198" y="522"/>
      <point x="234" y="544" type="curve"/>
      <point x="147" y="582" type="line"/>
      <point x="102" y="545"/>
      <point x="75" y="491"/>
      <point x="75" y="426" type="curve" smooth="yes"/>
      <point x="75" y="295"/>
      <point x="182" y="245"/>
      <point x="230" y="222" type="curve" smooth="yes"/>
      <point x="405" y="140" type="line" smooth="yes"/>
      <point x="435" y="126"/>
      <point x="501" y="94"/>
      <point x="501" y="21" type="curve" smooth="yes"/>
      <point x="501" y="-28"/>
      <point x="474" y="-69"/>
      <point x="431" y="-87" type="curve"/>
    </contour>
    <contour>
      <point x="367" y="-192" type="curve"/>
      <point x="367" y="-98" type="line"/>
      <point x="289" y="-96"/>
      <point x="220" y="-45"/>
      <point x="194" y="26" type="curve"/>
      <point x="147" y="-91" type="line"/>
      <point x="202" y="-162"/>
      <point x="295" y="-192"/>
    </contour>
    <contour>
      <point x="603" y="241" type="line"/>
      <point x="648" y="278"/>
      <point x="675" y="332"/>
      <point x="675" y="397" type="curve" smooth="yes"/>
      <point x="675" y="528"/>
      <point x="568" y="579"/>
      <point x="520" y="601" type="curve" smooth="yes"/>
      <point x="352" y="678" type="line" smooth="yes"/>
      <point x="320" y="693"/>
      <point x="273" y="723"/>
      <point x="273" y="781" type="curve" smooth="yes"/>
      <point x="273" y="824"/>
      <point x="298" y="861"/>
      <point x="343" y="875" type="curve"/>
      <point x="343" y="969" type="line"/>
      <point x="238" y="952"/>
      <point x="171" y="873"/>
      <point x="171" y="772" type="curve" smooth="yes"/>
      <point x="171" y="689"/>
      <point x="213" y="627"/>
      <point x="305" y="586" type="curve" smooth="yes"/>
      <point x="439" y="526" type="line" smooth="yes"/>
      <point x="508" y="495"/>
      <point x="573" y="461"/>
      <point x="573" y="383" type="curve" smooth="yes"/>
      <point x="573" y="339"/>
      <point x="552" y="301"/>
      <point x="516" y="279" type="curve"/>
    </contour>
    <contour>
      <point x="536" y="784" type="curve"/>
      <point x="579" y="894" type="line"/>
      <point x="544" y="932"/>
      <point x="480" y="967"/>
      <point x="407" y="972" type="curve"/>
      <point x="407" y="879" type="line"/>
      <point x="462" y="871"/>
      <point x="512" y="831"/>
    </contour>
  </outline>
</glyph>
<glyph name="copyright" format="2">
  <advance width="1260"/>
  <unicode hex="00A9"/>
  <outline>
    <contour>
      <point x="662" y="-191" type="line"/>
      <point x="955" y="-176"/>
      <point x="1188" y="65"/>
      <point x="1188" y="360" type="curve" smooth="yes"/>
      <point x="1188" y="655"/>
      <point x="955" y="896"/>
      <point x="662" y="911" type="curve"/>
      <point x="662" y="821" type="line"/>
      <point x="902" y="806"/>
      <point x="1092" y="605"/>
      <point x="1092" y="360" type="curve" smooth="yes"/>
      <point x="1092" y="115"/>
      <point x="902" y="-86"/>
      <point x="662" y="-101" type="curve"/>
    </contour>
    <contour>
      <point x="598" y="-191" type="curve"/>
      <point x="598" y="-101" type="line"/>
      <point x="358" y="-86"/>
      <point x="168" y="115"/>
      <point x="168" y="360" type="curve" smooth="yes"/>
      <point x="168" y="605"/>
      <point x="358" y="805"/>
      <point x="598" y="821" type="curve"/>
      <point x="598" y="911" type="line"/>
      <point x="305" y="896"/>
      <point x="72" y="655"/>
      <point x="72" y="360" type="curve" smooth="yes"/>
      <point x="72" y="65"/>
      <point x="305" y="-176"/>
    </contour>
    <contour>
      <point x="608" y="79" type="curve"/>
      <point x="608" y="172" type="line"/>
      <point x="522" y="191"/>
      <point x="459" y="270"/>
      <point x="459" y="360" type="curve" smooth="yes"/>
      <point x="459" y="450"/>
      <point x="522" y="529"/>
      <point x="608" y="548" type="curve"/>
      <point x="608" y="641" type="line"/>
      <point x="467" y="621"/>
      <point x="361" y="501"/>
      <point x="361" y="360" type="curve" smooth="yes"/>
      <point x="361" y="219"/>
      <point x="467" y="99"/>
    </contour>
    <contour>
      <point x="668" y="79" type="line"/>
      <point x="739" y="83"/>
      <point x="802" y="112"/>
      <point x="849" y="154" type="curve"/>
      <point x="819" y="277" type="line"/>
      <point x="791" y="220"/>
      <point x="736" y="178"/>
      <point x="668" y="171" type="curve"/>
    </contour>
    <contour>
      <point x="819" y="443" type="curve"/>
      <point x="849" y="566" type="line"/>
      <point x="802" y="608"/>
      <point x="739" y="637"/>
      <point x="668" y="641" type="curve"/>
      <point x="668" y="549" type="line"/>
      <point x="736" y="541"/>
      <point x="791" y="498"/>
    </contour>
  </outline>
</glyph>
<glyph name="registered" format="2">
  <advance width="600"/>
  <unicode hex="00AE"/>
  <outline>
    <contour>
      <point x="330" y="404" type="line"/>
      <point x="465" y="418"/>
      <point x="567" y="527"/>
      <point x="567" y="660" type="curve" smooth="yes"/>
      <point x="567" y="793"/>
      <point x="465" y="902"/>
      <point x="330" y="916" type="curve"/>
      <point x="330" y="856" type="line"/>
      <point x="428" y="841"/>
      <point x="501" y="759"/>
      <point x="501" y="660" type="curve" smooth="yes"/>
      <point x="501" y="561"/>
      <point x="428" y="479"/>
      <point x="330" y="464" type="curve"/>
    </contour>
    <contour>
      <point x="270" y="404" type="curve"/>
      <point x="270" y="464" type="line"/>
      <point x="172" y="479"/>
      <point x="99" y="561"/>
      <point x="99" y="660" type="curve" smooth="yes"/>
      <point x="99" y="759"/>
      <point x="172" y="841"/>
      <point x="270" y="856" type="curve"/>
      <point x="270" y="916" type="line"/>
      <point x="135" y="902"/>
      <point x="33" y="793"/>
      <point x="33" y="660" type="curve" smooth="yes"/>
      <point x="33" y="527"/>
      <point x="135" y="418"/>
    </contour>
    <contour>
      <point x="209" y="546" type="line"/>
      <point x="269" y="546" type="line"/>
      <point x="269" y="786" type="line"/>
      <point x="209" y="786" type="line"/>
    </contour>
    <contour>
      <point x="346" y="546" type="line"/>
      <point x="415" y="546" type="line"/>
      <point x="359" y="626" type="line"/>
      <point x="388" y="640"/>
      <point x="405" y="666"/>
      <point x="405" y="700" type="curve" smooth="yes"/>
      <point x="405" y="743"/>
      <point x="375" y="779"/>
      <point x="323" y="785" type="curve"/>
      <point x="323" y="731" type="line"/>
      <point x="337" y="726"/>
      <point x="345" y="715"/>
      <point x="345" y="699" type="curve" smooth="yes"/>
      <point x="345" y="685"/>
      <point x="338" y="673"/>
      <point x="323" y="667" type="curve"/>
      <point x="323" y="579" type="line"/>
    </contour>
  </outline>
</glyph>
<glyph name="eth" format="2">
  <advance width="740"/>
  <unicode hex="00F0"/>
  <anchor x="370" y="0" name="bottom"/>
  <anchor x="667" y="10" name="ogonek"/>
  <anchor x="370" y="600" name="top"/>
  <outline>
    <contour>
      <point x="402" y="-11" type="line"/>
      <point x="562" y="3"/>
      <point x="686" y="134"/>
      <point x="686" y="310" type="curve" smooth="yes"/>
      <point x="686" y="397"/>
      <point x="657" y="485"/>
      <point x="589" y="591" type="curve" smooth="yes"/>
      <point x="563" y="630"/>
      <point x="517" y="692"/>
      <point x="462" y="766" type="curve"/>
      <point x="384" y="715" type="line"/>
      <point x="430" y="652"/>
      <point x="470" y="594"/>
      <point x="503" y="536" type="curve" smooth="yes"/>
      <point x="552" y="449"/>
      <point x="578" y="392"/>
      <point x="578" y="311" type="curve" smooth="yes"/>
      <point x="578" y="196"/>
      <point x="501" y="108"/>
      <point x="402" y="92" type="curve"/>
    </contour>
    <contour>
      <point x="338" y="-11" type="curve"/>
      <point x="338" y="92" type="line"/>
      <point x="239" y="107"/>
      <point x="162" y="195"/>
      <point x="162" y="301" type="curve" smooth="yes"/>
      <point x="162" y="416"/>
      <point x="254" y="510"/>
      <point x="369" y="510" type="curve" smooth="yes"/>
      <point x="403" y="510"/>
      <point x="434" y="503"/>
      <point x="462" y="492" type="curve"/>
      <point x="402" y="601" type="line"/>
      <point x="385" y="605"/>
      <point x="368" y="606"/>
      <point x="350" y="606" type="curve" smooth="yes"/>
      <point x="187" y="606"/>
      <point x="54" y="470"/>
      <point x="54" y="301" type="curve" smooth="yes"/>
      <point x="54" y="137"/>
      <point x="178" y="5"/>
    </contour>
    <contour>
      <point x="208" y="672" type="line"/>
      <point x="543" y="891" type="line"/>
      <point x="505" y="950" type="line"/>
      <point x="379" y="868" type="line"/>
      <point x="352" y="900"/>
      <point x="326" y="931"/>
      <point x="301" y="960" type="curve"/>
      <point x="178" y="960" type="line"/>
      <point x="219" y="912"/>
      <point x="261" y="865"/>
      <point x="300" y="817" type="curve"/>
      <point x="170" y="732" type="line"/>
    </contour>
  </outline>
</glyph>
<glyph name="oslash" format="2">
  <advance width="740"/>
  <unicode hex="00F8"/>
  <anchor x="370" y="0" name="bottom"/>
  <anchor x="370" y="300" name="center"/>
  <anchor x="667" y="10" name="ogonek"/>
  <anchor x="370" y="600" name="top"/>
  <anchor x="723" y="600" name="topright"/>
  <outline>
    <contour>
      <point x="153" y="-18" type="line"/>
      <point x="642" y="564" type="line"/>
      <point x="581" y="617" type="line"/>
      <point x="92" y="35" type="line"/>
    </contour>
    <contour>
      <point x="370" y="-12" type="curve" smooth="yes"/>
      <point x="545" y="-12"/>
      <point x="686" y="127"/>
      <point x="686" y="300" type="curve" smooth="yes"/>
      <point x="686" y="365"/>
      <point x="666" y="424"/>
      <point x="633" y="474" type="curve"/>
      <point x="564" y="392" type="line"/>
      <point x="577" y="364"/>
      <point x="584" y="333"/>
      <point x="584" y="300" type="curve" smooth="yes"/>
      <point x="584" y="181"/>
      <point x="488" y="84"/>
      <point x="370" y="84" type="curve" smooth="yes"/>
      <point x="315" y="84"/>
      <point x="266" y="105"/>
      <point x="228" y="138" type="curve"/>
      <point x="168" y="59" type="line"/>
      <point x="223" y="15"/>
      <point x="293" y="-12"/>
    </contour>
    <contour>
      <point x="105" y="129" type="curve"/>
      <point x="175" y="212" type="line"/>
      <point x="163" y="239"/>
      <point x="156" y="269"/>
      <point x="156" y="300" type="curve" smooth="yes"/>
      <point x="156" y="419"/>
      <point x="251" y="516"/>
      <point x="370" y="516" type="curve" smooth="yes"/>
      <point x="420" y="516"/>
      <point x="467" y="498"/>
      <point x="504" y="468" type="curve"/>
      <point x="565" y="546" type="line"/>
      <point x="511" y="587"/>
      <point x="444" y="612"/>
      <point x="370" y="612" type="curve" smooth="yes"/>
      <point x="195" y="612"/>
      <point x="54" y="473"/>
      <point x="54" y="300" type="curve" smooth="yes"/>
      <point x="54" y="237"/>
      <point x="73" y="178"/>
    </contour>
  </outline>
</glyph>
<glyph name="Hbar" format="2">
  <advance width="800"/>
  <unicode hex="0126"/>
  <anchor x="400" y="0" name="bottom"/>
  <anchor x="400" y="720" name="center"/>
  <anchor x="400" y="900" name="top"/>
  <anchor x="126" y="900" name="topleft"/>
  <outline>
    <contour>
      <point x="560" y="0" type="line"/>
      <point x="674" y="0" type="line"/>
      <point x="674" y="625" type="line"/>
      <point x="560" y="625" type="line"/>
      <point x="560" y="546" type="line"/>
      <point x="300" y="546" type="line"/>
      <point x="300" y="444" type="line"/>
      <point x="560" y="444" type="line"/>
    </contour>
    <contour>
      <point x="126" y="0" type="line"/>
      <point x="240" y="0" type="line"/>
      <point x="240" y="625" type="line"/>
      <point x="126" y="625" type="line"/>
    </contour>
    <contour>
      <point x="30" y="678" type="line"/>
      <point x="770" y="678" type="line"/>
      <point x="770" y="762" type="line"/>
      <point x="674" y="762" type="line"/>
      <point x="674" y="900" type="line"/>
      <point x="560" y="900" type="line"/>
      <point x="560" y="762" type="line"/>
      <point x="240" y="762" type="line"/>
      <point x="240" y="900" type="line"/>
      <point x="126" y="900" type="line"/>
      <point x="126" y="762" type="line"/>
      <point x="30" y="762" type="line"/>
    </contour>
  </outline>
</glyph>
<glyph name="Uhorn" format="2">
  <advance width="920"/>
  <unicode hex="01AF"/>
  <anchor x="400" y="0" name="bottom"/>
  <anchor x="400" y="900" name="top"/>
  <outline>
    <contour>
      <point x="435" y="-11" type="line"/>
      <point x="587" y="3"/>
      <point x="692" y="121"/>
      <point x="692" y="287" type="curve" smooth="yes"/>
      <point x="692" y="900" type="line"/>
      <point x="582" y="900" type="line"/>
      <point x="582" y="283" type="line" smooth="yes"/>
      <point x="582" y="179"/>
      <point x="521" y="105"/>
      <point x="435" y="92" type="curve"/>
    </contour>
    <contour>
      <point x="367" y="-11" type="curve"/>
      <point x="367" y="92" type="line"/>
      <point x="281" y="107"/>
      <point x="222" y="180"/>
      <point x="222" y="287" type="curve" smooth="yes"/>
      <point x="222" y="900" type="line"/>
      <point x="108" y="900" type="line"/>
      <point x="108" y="283" type="line" smooth="yes"/>
      <point x="108" y="119"/>
      <point x="214" y="2"/>
    </contour>
    <contour>
      <point x="746" y="698" type="line"/>
      <point x="825" y="698"/>
      <point x="896" y="759"/>
      <point x="896" y="868" type="curve" smooth="yes"/>
      <point x="896" y="897"/>
      <point x="891" y="928"/>
      <point x="872" y="960" type="curve"/>
      <point x="776" y="960" type="line"/>
      <point x="795" y="927"/>
      <point x="800" y="892"/>
      <point x="800" y="868" type="curve" smooth="yes"/>
      <point x="800" y="825"/>
      <point x="781" y="790"/>
      <point x="746" y="779" type="curve"/>
    </contour>
  </outline>
</glyph>
<glyph name="uhorn" format="2">
  <advance width="840"/>
  <unicode hex="01B0"/>
  <anchor x="360" y="0" name="bottom"/>
  <anchor x="360" y="600" name="top"/>
  <outline>
    <contour>
      <point x="678" y="398" type="line"/>
      <point x="752" y="404"/>
      <point x="816" y="463"/>
      <point x="816" y="568" type="curve" smooth="yes"/>
      <point x="816" y="597"/>
      <point x="811" y="628"/>
      <point x="792" y="660" type="curve"/>
      <point x="702" y="660" type="line"/>
      <point x="721" y="627"/>
      <point x="726" y="592"/>
      <point x="726" y="568" type="curve" smooth="yes"/>
      <point x="726" y="519"/>
      <point x="705" y="492"/>
      <point x="678" y="481" type="curve"/>
    </contour>
    <contour>
      <point x="325" y="-12" type="curve" smooth="yes"/>
      <point x="372" y="-12"/>
      <point x="417" y="1"/>
      <point x="456" y="26" type="curve"/>
      <point x="456" y="125" type="line"/>
      <point x="427" y="102"/>
      <point x="391" y="90"/>
      <point x="354" y="90" type="curve" smooth="yes"/>
      <point x="251" y="90"/>
      <point x="192" y="175"/>
      <point x="192" y="270" type="curve" smooth="yes"/>
      <point x="192" y="600" type="line"/>
      <point x="84" y="600" type="line"/>
      <point x="84" y="255" type="line" smooth="yes"/>
      <point x="84" y="86"/>
      <point x="198" y="-12"/>
    </contour>
    <contour>
      <point x="516" y="0" type="line"/>
      <point x="624" y="0" type="line"/>
      <point x="624" y="600" type="line"/>
      <point x="516" y="600" type="line"/>
    </contour>
  </outline>
</glyph>
<glyph name="ezh" format="2">
  <advance width="660"/>
  <unicode hex="0292"/>
  <anchor x="302" y="-360" name="bottom"/>
  <anchor x="320" y="600" name="top"/>
  <outline>
    <contour>
      <point x="332" y="-311" type="line"/>
      <point x="490" y="-296"/>
      <point x="614" y="-168"/>
      <point x="614" y="-6" type="curve" smooth="yes"/>
      <point x="614" y="143"/>
      <point x="507" y="258"/>
      <point x="373" y="285" type="curve"/>
      <point x="542" y="600" type="line"/>
      <point x="426" y="600" type="line"/>
      <point x="205" y="173" type="line"/>
      <point x="232" y="188"/>
      <point x="265" y="198"/>
      <point x="302" y="198" type="curve" smooth="yes"/>
      <point x="415" y="198"/>
      <point x="506" y="106"/>
      <point x="506" y="-6" type="curve" smooth="yes"/>
      <point x="506" y="-109"/>
      <point x="431" y="-194"/>
      <point x="332" y="-208" type="curve"/>
    </contour>
    <contour>
      <point x="272" y="-311" type="curve"/>
      <point x="272" y="-208" type="line"/>
      <point x="182" y="-195"/>
      <point x="111" y="-124"/>
      <point x="98" y="-31" type="curve"/>
      <point x="32" y="-162" type="line"/>
      <point x="82" y="-247"/>
      <point x="170" y="-302"/>
    </contour>
    <contour>
      <point x="98" y="504" type="line"/>
      <point x="310" y="504" type="line"/>
      <point x="360" y="600" type="line"/>
      <point x="98" y="600" type="line"/>
    </contour>
  </outline>
</glyph>
<glyph name="cedillacomb" format="2">
  <unicode hex="0327"/>
  <anchor x="432" y="0" name="_bottom"/>
  <anchor x="272" y="-240" name="bottom"/>
  <outline>
    <contour>
      <point x="200" y="-240" type="line"/>
      <point x="343" y="-240" type="line"/>
      <point x="476" y="-72" type="line"/>
      <point x="366" y="-72" type="line"/>
    </contour>
  </outline>
</glyph>
<glyph name="guilsinglleft" format="2">
  <advance width="360"/>
  <unicode hex="2039"/>
  <outline>
    <contour>
      <point x="204" y="60" type="line"/>
      <point x="312" y="60" type="line"/>
      <point x="150" y="300" type="line"/>
      <point x="312" y="540" type="line"/>
      <point x="204" y="540" type="line"/>
      <point x="42" y="300" type="line"/>
    </contour>
  </outline>
</glyph>
<glyph name="fraction" format="2">
  <advance width="120"/>
  <unicode hex="2044"/>
  <outline>
    <contour>
      <point x="-300" y="0" type="line"/>
      <point x="-198" y="0" type="line"/>
      <point x="420" y="900" type="line"/>
      <point x="318" y="900" type="line"/>
    </contour>
  </outline>
</glyph>
<glyph name="dek" format="2">
  <advance width="750"/>
  <unicode hex="218A"/>
  <outline>
    <contour>
      <point x="352" y="-10" type="curve"/>
      <point x="352" y="93" type="line"/>
      <point x="280" y="106"/>
      <point x="226" y="169"/>
      <point x="226" y="245" type="curve" smooth="yes"/>
      <point x="226" y="277"/>
      <point x="237" y="313"/>
      <point x="270" y="363" type="curve" smooth="yes"/>
      <point x="631" y="900" type="line"/>
      <point x="511" y="900" type="line"/>
      <point x="181" y="421" type="line" smooth="yes"/>
      <point x="135" y="354"/>
      <point x="118" y="302"/>
      <point x="118" y="245" type="curve" smooth="yes"/>
      <point x="118" y="110"/>
      <point x="221" y="3"/>
    </contour>
    <contour>
      <point x="416" y="-10" type="line"/>
      <point x="545" y="4"/>
      <point x="649" y="110"/>
      <point x="649" y="245" type="curve" smooth="yes"/>
      <point x="649" y="287"/>
      <point x="638" y="326"/>
      <point x="617" y="366" type="curve"/>
      <point x="480" y="366" type="line"/>
      <point x="521" y="333"/>
      <point x="541" y="291"/>
      <point x="541" y="245" type="curve" smooth="yes"/>
      <point x="541" y="169"/>
      <point x="487" y="106"/>
      <point x="416" y="93" type="curve"/>
    </contour>
    <contour>
      <point x="101" y="798" type="line"/>
      <point x="374" y="798" type="line"/>
      <point x="445" y="900" type="line"/>
      <point x="101" y="900" type="line"/>
    </contour>
  </outline>
</glyph>
<glyph name="el" format="2">
  <advance width="750"/>
  <unicode hex="218B"/>
  <outline>
    <contour>
      <point x="147" y="0" type="line"/>
      <point x="261" y="0" type="line"/>
      <point x="501" y="461" type="line"/>
      <point x="477" y="451"/>
      <point x="449" y="446"/>
      <point x="419" y="446" type="curve" smooth="yes"/>
      <point x="318" y="446"/>
      <point x="238" y="526"/>
      <point x="238" y="628" type="curve" smooth="yes"/>
      <point x="238" y="721"/>
      <point x="303" y="795"/>
      <point x="390" y="808" type="curve"/>
      <point x="390" y="911" type="line"/>
      <point x="244" y="896"/>
      <point x="130" y="778"/>
      <point x="130" y="627" type="curve" smooth="yes"/>
      <point x="130" y="484"/>
      <point x="239" y="367"/>
      <point x="374" y="355" type="curve"/>
      <point x="364" y="405" type="line"/>
    </contour>
    <contour>
      <point x="327" y="0" type="line"/>
      <point x="649" y="0" type="line"/>
      <point x="649" y="102" type="line"/>
      <point x="380" y="102" type="line"/>
    </contour>
    <contour>
      <point x="603" y="663" type="curve"/>
      <point x="666" y="784" type="line"/>
      <point x="616" y="858"/>
      <point x="538" y="902"/>
      <point x="454" y="911" type="curve"/>
      <point x="454" y="807" type="line"/>
      <point x="526" y="794"/>
      <point x="586" y="739"/>
    </contour>
  </outline>
</glyph>
<glyph name="backslash.titl" format="2">
  <advance width="480"/>
  <outline>
    <contour>
      <point x="540" y="-180" type="line"/>
      <point x="0" y="960" type="line"/>
      <point x="-60" y="960" type="line"/>
      <point x="480" y="-180" type="line"/>
    </contour>
  </outline>
</glyph>
<glyph name="el.numr" format="2">
  <advance width="480"/>
  <outline>
    <contour>
      <point x="78" y="420" type="line"/>
      <point x="165" y="420" type="line"/>
      <point x="318" y="683" type="line"/>
      <point x="303" y="675"/>
      <point x="287" y="671"/>
      <point x="269" y="671" type="curve" smooth="yes"/>
      <point x="218" y="671"/>
      <point x="185" y="706"/>
      <point x="185" y="752" type="curve" smooth="yes"/>
      <point x="185" y="787"/>
      <point x="205" y="815"/>
      <point x="237" y="826" type="curve"/>
      <point x="237" y="910" type="line"/>
      <point x="154" y="898"/>
      <point x="96" y="831"/>
      <point x="96" y="751" type="curve" smooth="yes"/>
      <point x="96" y="670"/>
      <point x="156" y="607"/>
      <point x="231" y="601" type="curve"/>
      <point x="206" y="638" type="line"/>
    </contour>
    <contour>
      <point x="224" y="420" type="line"/>
      <point x="414" y="420" type="line"/>
      <point x="414" y="500" type="line"/>
      <point x="269" y="500" type="line"/>
    </contour>
    <contour>
      <point x="360" y="755" type="curve"/>
      <point x="408" y="840" type="line"/>
      <point x="381" y="877"/>
      <point x="340" y="902"/>
      <point x="293" y="910" type="curve"/>
      <point x="293" y="828" type="line"/>
      <point x="326" y="818"/>
      <point x="351" y="790"/>
    </contour>
  </outline>
</glyph>
<glyph name="greater.titl" format="2">
  <advance width="750"/>
  <outline>
    <contour>
      <point x="90" y="173" type="line"/>
      <point x="660" y="450" type="line"/>
      <point x="90" y="729" type="line"/>
      <point x="90" y="673" type="line"/>
      <point x="442" y="503" type="line" smooth="yes"/>
      <point x="479" y="485"/>
      <point x="519" y="468"/>
      <point x="560" y="451" type="curve"/>
      <point x="519" y="435"/>
      <point x="479" y="418"/>
      <point x="442" y="400" type="curve" smooth="yes"/>
      <point x="90" y="230" type="line"/>
    </contour>
  </outline>
</glyph>
<glyph name="ringcomb_acutecomb" format="2">
  <anchor x="360" y="600" name="_top"/>
  <outline>
    <contour>
      <point x="324" y="969" type="line"/>
      <point x="408" y="969" type="line"/>
      <point x="485" y="1080" type="line"/>
      <point x="380" y="1080" type="line"/>
    </contour>
    <contour>
      <point x="387" y="654" type="line"/>
      <point x="454" y="665"/>
      <point x="498" y="715"/>
      <point x="498" y="780" type="curve" smooth="yes"/>
      <point x="498" y="844"/>
      <point x="452" y="894"/>
      <point x="387" y="906" type="curve"/>
      <point x="387" y="837" type="line"/>
      <point x="414" y="827"/>
      <point x="429" y="805"/>
      <point x="429" y="780" type="curve" smooth="yes"/>
      <point x="429" y="755"/>
      <point x="414" y="733"/>
      <point x="387" y="723" type="curve"/>
    </contour>
    <contour>
      <point x="333" y="654" type="curve"/>
      <point x="333" y="723" type="line"/>
      <point x="305" y="733"/>
      <point x="291" y="755"/>
      <point x="291" y="780" type="curve" smooth="yes"/>
      <point x="291" y="805"/>
      <point x="305" y="827"/>
      <point x="333" y="837" type="curve"/>
      <point x="333" y="906" type="line"/>
      <point x="267" y="894"/>
      <point x="222" y="844"/>
      <point x="222" y="780" type="curve" smooth="yes"/>
      <point x="222" y="716"/>
      <point x="267" y="666"/>
    </contour>
  </outline>
</glyph>
<glyph name="six.numr" format="2">
  <advance width="480"/>
  <outline>
    <contour>
      <point x="212" y="410" type="curve"/>
      <point x="212" y="493" type="line"/>
      <point x="171" y="505"/>
      <point x="144" y="541"/>
      <point x="144" y="583" type="curve" smooth="yes"/>
      <point x="144" y="607"/>
      <point x="148" y="626"/>
      <point x="168" y="664" type="curve" smooth="yes"/>
      <point x="294" y="900" type="line"/>
      <point x="204" y="900" type="line"/>
      <point x="79" y="666" type="line" smooth="yes"/>
      <point x="66" y="641"/>
      <point x="58" y="611"/>
      <point x="58" y="582" type="curve" smooth="yes"/>
      <point x="58" y="494"/>
      <point x="124" y="424"/>
    </contour>
    <contour>
      <point x="268" y="410" type="line"/>
      <point x="356" y="423"/>
      <point x="422" y="494"/>
      <point x="422" y="583" type="curve" smooth="yes"/>
      <point x="422" y="673"/>
      <point x="356" y="740"/>
      <point x="273" y="750" type="curve"/>
      <point x="236" y="680" type="line"/>
      <point x="305" y="679"/>
      <point x="336" y="627"/>
      <point x="336" y="583" type="curve" smooth="yes"/>
      <point x="336" y="541"/>
      <point x="308" y="505"/>
      <point x="268" y="493" type="curve"/>
    </contour>
  </outline>
</glyph>
<glyph name="two.lf" format="2">
  <advance width="690"/>
  <outline>
    <contour>
      <point x="89" y="0" type="line"/>
      <point x="209" y="0" type="line"/>
      <point x="539" y="479" type="line"/>
      <point x="585" y="546"/>
      <point x="602" y="598"/>
      <point x="602" y="655" type="curve" smooth="yes"/>
      <point x="602" y="790"/>
      <point x="499" y="897"/>
      <point x="368" y="911" type="curve"/>
      <point x="368" y="807" type="line"/>
      <point x="440" y="794"/>
      <point x="494" y="731"/>
      <point x="494" y="655" type="curve" smooth="yes"/>
      <point x="494" y="623"/>
      <point x="483" y="587"/>
      <point x="450" y="537" type="curve" smooth="yes"/>
    </contour>
    <contour>
      <point x="281" y="0" type="line"/>
      <point x="619" y="0" type="line"/>
      <point x="619" y="102" type="line"/>
      <point x="351" y="102" type="line"/>
    </contour>
    <contour>
      <point x="103" y="534" type="curve"/>
      <point x="240" y="534" type="line"/>
      <point x="199" y="567"/>
      <point x="179" y="609"/>
      <point x="179" y="655" type="curve" smooth="yes"/>
      <point x="179" y="731"/>
      <point x="233" y="794"/>
      <point x="304" y="807" type="curve"/>
      <point x="304" y="910" type="line"/>
      <point x="174" y="896"/>
      <point x="71" y="790"/>
      <point x="71" y="655" type="curve" smooth="yes"/>
      <point x="71" y="613"/>
      <point x="82" y="574"/>
    </contour>
  </outline>
</glyph>
